Coordinates
version=1
nRows=42
nColumns=38
inDegrees=no

Units are S.I. units (second, meters, Newtons, ...)
If the header above contains a line with 'inDegrees', this indicates whether rotational values are in degrees (yes) or radians (no).

endheader
time	pelvis_tilt	pelvis_list	pelvis_rotation	pelvis_tx	pelvis_ty	pelvis_tz	hip_flexion_r	hip_adduction_r	hip_rotation_r	knee_angle_r	ankle_angle_r	subtalar_angle_r	mtp_angle_r	hip_flexion_l	hip_adduction_l	hip_rotation_l	knee_angle_l	ankle_angle_l	subtalar_angle_l	mtp_angle_l	lumbar_extension	lumbar_bending	lumbar_rotation	arm_flex_r	arm_add_r	arm_rot_r	elbow_flex_r	pro_sup_r	wrist_flex_r	wrist_dev_r	arm_flex_l	arm_add_l	arm_rot_l	elbow_flex_l	pro_sup_l	wrist_flex_l	wrist_dev_l
115	-2.7261	1.4044	1.29955	0.809501	-0.777728	0.892048	-0.0589628	-0.00546154	-0.0447768	0	-0.281156	0	0	-0.0197444	-0.10469	-0.193128	0	-0.213726	0	0	0.246585	0.0687871	-0.00126538	-0.102974	-0.239394	0.235926	0.717003	1.39883	0	0	0.10248	-0.088306	0.461347	0.337802	1.48219	0	0
115.01	-3.12697	1.44908	1.68601	0.813903	-0.777184	0.897548	-0.0985716	-0.0846277	-0.0669626	0	-0.292941	0	0	-0.063278	-0.0323724	-0.228829	0	-0.270465	0	0	0.194831	0.0128749	0.0231914	-0.0934079	-0.229356	0.207551	0.70688	1.4648	0	0	0.113379	-0.0791479	0.418745	0.324973	1.5708	0	0
115.02	-2.4422	1.38549	1.05647	0.812128	-0.773468	0.887472	-0.0616623	0.0553268	-0.0724369	0	-0.295726	0	0	0.0112743	-0.142414	-0.139901	0	-0.284494	0	0	0.237568	0.119902	-0.0385887	-0.130954	-0.238468	0.151714	0.772221	1.54776	0	0	0.103688	-0.0741185	0.383185	0.358776	1.5708	0	0
115.03	-2.90934	1.42734	1.48994	0.815371	-0.777121	0.894426	-0.0792825	-0.050126	-0.082499	0	-0.301277	0	0	-0.0171136	-0.0509108	-0.20288	0	-0.310249	0	0	0.222797	0.0399362	0.000439815	-0.115019	-0.22052	0.149818	0.723429	1.5708	0	0	0.101914	-0.0700927	0.361678	0.334124	1.5708	0	0
115.04	-2.43931	1.38595	1.04807	0.813556	-0.773655	0.887652	-0.062349	0.052127	-0.0674757	0	-0.296576	0	0	0.00651425	-0.139732	-0.16275	0	-0.272844	0	0	0.235039	0.125262	-0.0349575	-0.134287	-0.239943	0.139101	0.776809	1.5708	0	0	0.100699	-0.0679119	0.363356	0.360945	1.5708	0	0
115.05	-2.92133	1.41894	1.49673	0.815067	-0.777101	0.894033	-0.0684972	-0.0525563	-0.0650992	0	-0.29928	0	0	-0.00856115	-0.0510664	-0.213025	0	-0.253766	0	0	0.229994	0.0409996	0.00555773	-0.120971	-0.220512	0.143307	0.73161	1.5708	0	0	0.0976716	-0.0706721	0.355359	0.340015	1.5708	0	0
115.06	-2.34573	1.35662	0.919473	0.809983	-0.77704	0.884303	-0.0495416	0.0890917	-0.0203817	0	-0.297167	0	0	0.0643548	-0.158355	-0.349558	0	-0.196586	0	0	0.254172	0.17135	-0.00556601	-0.164259	-0.253441	0.12754	0.816967	1.5708	0	0	0.0836298	-0.0654999	0.360146	0.380935	1.5708	0	0
115.07	-2.25071	1.30554	0.822538	0.814441	-0.775384	0.879551	-0.0192196	0.135443	-0.00650332	0	-0.299087	0	0	0.0412358	-0.229544	-0.230761	0	-0.198994	0	0	0.285027	0.239087	-0.0156611	-0.187356	-0.287979	0.123187	0.860043	1.5708	0	0	0.0794577	-0.0426422	0.358498	0.381669	1.5708	0	0
115.08	-2.1721	1.2746	0.743384	0.815713	-0.775626	0.876795	-0.0135811	0.174468	0.0008573	0	-0.302286	0	0	0.0342789	-0.271413	-0.197399	0	-0.197901	0	0	0.297124	0.285783	-0.0194857	-0.210996	-0.309353	0.115838	0.900291	1.5708	0	0	0.0765444	-0.0312962	0.35819	0.38641	1.5708	0	0
115.09	-2.1274	1.27559	0.701063	0.816523	-0.77689	0.8767	-0.0290239	0.18317	-0.00728177	0	-0.305318	0	0	0.0223996	-0.277585	-0.194413	0	-0.196187	0	0	0.289356	0.295596	-0.0168436	-0.224258	-0.314527	0.1076	0.919008	1.5708	0	0	0.0764928	-0.0290489	0.360775	0.389546	1.5708	0	0
115.1	-2.16989	1.30309	0.731516	0.813821	-0.778064	0.882374	-0.0382348	0.156289	-0.00118755	0	-0.311498	0	0	-0.0156216	-0.275124	-0.193719	0	-0.191552	0	0	0.274208	0.262892	-0.000186174	-0.205194	-0.293521	0.111745	0.878531	1.5708	0	0	0.0827357	-0.0346403	0.360916	0.369619	1.5708	0	0
115.11	-2.13826	1.31247	0.695493	0.813515	-0.778609	0.883368	-0.0538094	0.154551	0.00242858	0	-0.321358	0	0	-0.036037	-0.272975	-0.199968	0	-0.170037	0	0	0.258071	0.261533	0.00478548	-0.1985	-0.291386	0.113808	0.871032	1.5708	0	0	0.0868684	-0.0357494	0.368439	0.36489	1.5708	0	0
115.12	-2.17996	1.30377	0.73911	0.813753	-0.777957	0.882458	-0.0363463	0.153213	0.0045229	0	-0.321069	0	0	-0.0158773	-0.272304	-0.193157	0	-0.160316	0	0	0.274266	0.26031	0.00131332	-0.200684	-0.290573	0.111886	0.870499	1.5708	0	0	0.0848679	-0.0358386	0.369637	0.364491	1.5708	0	0
115.13	-2.19226	1.29676	0.752994	0.81432	-0.778247	0.881728	-0.029167	0.15569	0.00358721	0	-0.321363	0	0	-0.00547452	-0.275438	-0.193371	0	-0.145461	0	0	0.285396	0.263853	-0.000401711	-0.207691	-0.292178	0.107687	0.876277	1.5708	0	0	0.0815816	-0.0352768	0.372351	0.366803	1.5708	0	0
115.14	-2.11559	1.2878	0.672063	0.812463	-0.778964	0.880695	-0.0433111	0.181787	0.0108729	0	-0.321231	0	0	0.0151464	-0.297288	-0.202661	0	-0.123317	0	0	0.27505	0.286021	0.00489734	-0.215345	-0.296232	0.103856	0.892456	1.5708	0	0	0.0804518	-0.03741	0.375312	0.378018	1.5708	0	0
115.15	-2.18702	1.29837	0.748546	0.814612	-0.777907	0.881922	-0.0307686	0.155096	0.00315004	0	-0.321273	0	0	-0.00684883	-0.274957	-0.192926	0	-0.144895	0	0	0.283906	0.263224	0.000802681	-0.20692	-0.291882	0.107422	0.874831	1.5708	0	0	0.0832211	-0.0352367	0.374227	0.365591	1.5708	0	0
115.16	-2.20738	1.29201	0.769448	0.814649	-0.777627	0.881203	-0.0194369	0.155709	0.00289393	0	-0.31177	0	0	0.0037694	-0.275625	-0.185403	0	-0.190067	0	0	0.293692	0.264101	-0.0010258	-0.21108	-0.292141	0.104825	0.88011	1.5708	0	0	0.0801805	-0.0356617	0.371968	0.36864	1.5708	0	0
115.17	-2.17038	1.26472	0.745057	0.81709	-0.77482	0.875745	-0.00409232	0.180874	0.000247929	0	-0.308201	0	0	0.0465158	-0.278397	-0.175412	0	-0.192031	0	0	0.306825	0.294537	-0.015078	-0.228437	-0.310357	0.0957826	0.920923	1.5708	0	0	0.0787529	-0.0308206	0.374833	0.387184	1.5708	0	0
115.18	-2.23843	1.3028	0.802318	0.814633	-0.777887	0.882008	-0.0213666	0.141121	-0.00289212	0	-0.311525	0	0	0.00231899	-0.260265	-0.185904	0	-0.191269	0	0	0.290773	0.246748	-0.00131478	-0.205708	-0.285086	0.106415	0.870806	1.5708	0	0	0.0789493	-0.040542	0.370974	0.369284	1.5708	0	0
115.19	-2.61626	1.41547	1.20298	0.810784	-0.776407	0.892718	-0.0756963	0.0113017	-0.0687625	0	-0.304558	0	0	-0.037597	-0.11999	-0.165052	0	-0.311189	0	0	0.222144	0.0776293	-0.010029	-0.114863	-0.214628	0.149016	0.729773	1.5708	0	0	0.0955134	-0.0841304	0.359311	0.357647	1.5708	0	0
115.2	-2.81398	1.42763	1.39742	0.818058	-0.776399	0.893994	-0.0792804	-0.0383847	-0.086614	0	-0.304775	0	0	-0.0161043	-0.0655703	-0.202447	0	-0.289691	0	0	0.218978	0.0558597	-0.00358871	-0.119555	-0.225987	0.145124	0.736831	1.5708	0	0	0.0970532	-0.0714121	0.362699	0.346353	1.5708	0	0
115.21	-2.72445	1.42431	1.30429	0.812379	-0.777063	0.893891	-0.0785598	-0.0132448	-0.0720323	0	-0.304279	0	0	-0.0444604	-0.0952256	-0.177035	0	-0.290842	0	0	0.219894	0.0615948	-0.000667621	-0.115218	-0.213557	0.146729	0.726362	1.5708	0	0	0.0950776	-0.0831862	0.362999	0.353486	1.5708	0	0
115.22	-2.69431	1.42564	1.27091	0.812157	-0.777001	0.894023	-0.0805588	-0.00913532	-0.0652094	0	-0.304289	0	0	-0.0508403	-0.0996504	-0.173275	0	-0.291147	0	0	0.2175	0.0665278	0.00237229	-0.114167	-0.21423	0.146791	0.725259	1.5708	0	0	0.0944275	-0.0835004	0.364366	0.356463	1.5708	0	0
115.23	-3.02476	1.4513	1.59743	0.816447	-0.777213	0.898438	-0.101123	-0.0698649	-0.088789	0	-0.307047	0	0	-0.0612131	-0.0473677	-0.216717	0	-0.304473	0	0	0.196396	0.0208608	0.0114325	-0.101619	-0.210624	0.152338	0.703297	1.5708	0	0	0.101248	-0.0796179	0.364432	0.340924	1.5708	0	0
115.24	-3.0305	1.45489	1.60344	0.816649	-0.777075	0.898763	-0.104816	-0.0707104	-0.0915263	0	-0.307975	0	0	-0.0648072	-0.0464652	-0.217852	0	-0.309314	0	0	0.192156	0.0199317	0.0116913	-0.0997936	-0.210469	0.153897	0.701198	1.5708	0	0	0.102571	-0.0798135	0.365943	0.340388	1.5708	0	0
115.25	-3.03497	1.45889	1.61013	0.817126	-0.776982	0.899095	-0.109564	-0.0713922	-0.0965503	0	-0.308925	0	0	-0.0685545	-0.0456664	-0.217576	0	-0.312326	0	0	0.186928	0.0193054	0.00992144	-0.0991878	-0.210737	0.153901	0.702025	1.5708	0	0	0.103136	-0.0804052	0.36752	0.341883	1.5708	0	0
115.26	-3.02142	1.45796	1.59628	0.817497	-0.77687	0.898662	-0.107946	-0.0708375	-0.0946968	0	-0.305284	0	0	-0.0689298	-0.0483545	-0.220416	0	-0.312174	0	0	0.18839	0.0211908	0.0108344	-0.101716	-0.211418	0.150319	0.705838	1.5708	0	0	0.101297	-0.0817552	0.372244	0.34698	1.5708	0	0
115.27	3.08404	1.45544	1.76517	0.81642	-0.775887	0.898538	-0.10232	-0.0950841	-0.0861393	0	-0.302649	0	0	-0.062931	-0.0260225	-0.223458	0	-0.313541	0	0	0.185941	-0.000264723	0.0225297	-0.0996641	-0.206458	0.148977	0.7068	1.5708	0	0	0.102539	-0.0872091	0.372094	0.350948	1.5708	0	0
115.28	-2.86346	1.43673	1.44422	0.819059	-0.775446	0.895254	-0.0825287	-0.0504503	-0.0883181	0	-0.304818	0	0	-0.0214471	-0.0595263	-0.207856	0	-0.318031	0	0	0.21193	0.0459532	0.00287826	-0.113894	-0.222098	0.146604	0.727233	1.5708	0	0	0.097346	-0.0764107	0.372026	0.35085	1.5708	0	0
115.29	-3.07978	1.45603	1.64711	0.818876	-0.775728	0.898082	-0.0991805	-0.0837892	-0.0885647	0	-0.304936	0	0	-0.0613571	-0.0378184	-0.227636	0	-0.310969	0	0	0.18934	0.0188738	0.018778	-0.104954	-0.216247	0.147735	0.716827	1.5708	0	0	0.100688	-0.0800113	0.371435	0.350206	1.5708	0	0
115.3	3.02445	1.4649	1.81697	0.816504	-0.774968	0.899613	-0.108274	-0.102761	-0.0781635	0	-0.302871	0	0	-0.0744015	-0.0191282	-0.236346	0	-0.311485	0	0	0.171699	-0.00375038	0.0304354	-0.0943383	-0.205526	0.146612	0.704863	1.5708	0	0	0.103964	-0.0898287	0.372816	0.357726	1.5708	0	0
115.31	-2.87564	1.47223	1.45067	0.817733	-0.776132	0.900916	-0.107731	-0.0263593	-0.165898	0	-0.331028	0	0	-0.0790193	-0.066126	-0.224197	0	-0.305981	0	0	0.169122	0.037297	0.00815106	-0.0973558	-0.21178	0.145633	0.706495	1.5708	0	0	0.102564	-0.0832181	0.371874	0.353269	1.5708	0	0
115.32	-2.95447	1.46484	1.52723	0.818842	-0.775286	0.899966	-0.10576	-0.0649879	-0.10238	0	-0.33063	0	0	-0.0689367	-0.0550687	-0.222802	0	-0.302093	0	0	0.177682	0.0312892	0.00939132	-0.0982214	-0.213744	0.14672	0.709157	1.5708	0	0	0.0988268	-0.0840759	0.367195	0.359538	1.5708	0	0
115.33	-2.85333	1.47254	1.42644	0.818167	-0.775402	0.901301	-0.103821	-0.0255289	-0.164105	0	-0.339433	0	0	-0.0787327	-0.0674981	-0.224887	0	-0.303931	0	0	0.167259	0.040625	0.00841024	-0.0965106	-0.212853	0.144856	0.708023	1.5708	0	0	0.100674	-0.0856625	0.369806	0.360609	1.5708	0	0
115.34	-3.00595	1.47101	1.58214	0.818236	-0.774029	0.901138	-0.108108	-0.069738	-0.107743	0	-0.333	0	0	-0.0714728	-0.0505878	-0.214291	0	-0.295294	0	0	0.167472	0.0219221	0.00607925	-0.0925441	-0.20765	0.144727	0.705118	1.5708	0	0	0.0987482	-0.0932239	0.365256	0.371245	1.5708	0	0
115.35	-2.82222	1.47202	1.39068	0.818379	-0.774529	0.901587	-0.0984653	-0.0240183	-0.156603	0	-0.339321	0	0	-0.0788005	-0.07023	-0.229137	0	-0.288886	0	0	0.165764	0.0453686	0.010043	-0.0955474	-0.214437	0.144423	0.710457	1.5708	0	0	0.0970337	-0.0892144	0.364078	0.371789	1.5708	0	0
115.36	-2.86179	1.47211	1.41431	0.817429	-0.774695	0.901214	-0.103997	-0.0586616	-0.0690707	0	-0.318104	0	0	-0.0531365	-0.0651507	-0.239761	0.00343802	-0.252002	0	0	0.165407	0.0450719	0.0261835	-0.100906	-0.215865	0.138937	0.720504	1.5708	0	0	0.0926049	-0.0928455	0.362918	0.383111	1.5708	0	0
115.37	-2.65371	1.45418	1.21557	0.818035	-0.773039	0.897629	-0.0896228	-0.0292739	-0.0665517	0	-0.314949	0	0	0.0107959	-0.0825805	-0.219825	0.0284498	-0.252695	0	0	0.17676	0.0733906	0.0147752	-0.112859	-0.225762	0.132953	0.748532	1.5708	0	0	0.0882349	-0.0945397	0.364375	0.400306	1.5708	0	0
115.38	-3.06061	1.46493	1.61456	0.81908	-0.77127	0.900772	-0.085778	-0.0862071	-0.0673064	0	-0.314211	0	0	-0.0631046	-0.0384134	-0.232384	0	-0.270469	0	0	0.167737	0.0244318	0.0251539	-0.0973249	-0.214845	0.135402	0.725255	1.5708	0	0	0.094984	-0.100067	0.363771	0.392156	1.5708	0	0
115.39	-2.90744	1.46756	1.46415	0.820129	-0.771565	0.901452	-0.0898547	-0.0688075	-0.072698	0	-0.31668	0	0	-0.0690845	-0.054966	-0.234154	0	-0.28356	0	0	0.166529	0.0423619	0.0190388	-0.0975528	-0.219192	0.136041	0.723937	1.5708	0	0	0.0950858	-0.0974663	0.364693	0.389136	1.5708	0	0
115.4	-2.96405	1.46781	1.52065	0.819177	-0.770687	0.902062	-0.0868932	-0.0738478	-0.0730698	0	-0.319507	0	0	-0.0672764	-0.0497119	-0.228002	0	-0.29767	0	0	0.165558	0.0329575	0.0172574	-0.0916771	-0.213533	0.137847	0.716217	1.5708	0	0	0.0964825	-0.104718	0.366324	0.390282	1.5708	0	0
115.41	-2.73424	1.47514	1.28968	0.820068	-0.770679	0.903153	-0.0870324	-0.0222516	-0.148533	0	-0.346571	0	0	-0.0819842	-0.0729772	-0.237781	0	-0.30447	0	0	0.152798	0.0591006	0.0136055	-0.0935593	-0.222606	0.13831	0.726259	1.5708	0	0	0.0988395	-0.100738	0.366149	0.388546	1.5708	0	0
